<?xml version="1.0" standalone="no"?>
<!DOCTYPE svg PUBLIC "-//W3C//DTD SVG 20010904//EN"
 "http://www.w3.org/TR/2001/REC-SVG-20010904/DTD/svg10.dtd">
<svg width="77" height="77" viewBox="0 0 77 77" fill="none" xmlns="http://www.w3.org/2000/svg">
<path fill-rule="evenodd" clip-rule="evenodd" d="M42.1051 2.67254C41.9155 2.6563 41.7259 2.64125 41.5363 2.62736L41.5395 2.6016C39.417 2.47142 37.3836 2.65554 35.2883 2.90265C35.1318 3.1459 34.8611 3.16847 34.5899 3.19107C34.4694 3.20112 34.3488 3.21117 34.2382 3.24061C32.4887 3.27331 30.795 3.71117 29.0764 4.20342C25.6827 5.22333 22.3785 6.67523 19.3219 8.52144L19.2868 8.47473C16.9576 9.8082 14.7335 11.3493 12.752 13.1687L12.7523 13.169L12.7523 13.169C12.7599 13.175 12.7665 13.1804 12.7731 13.1874C12.6718 13.2639 12.4641 13.4408 12.2205 13.684L11.396 14.5162C10.8322 15.1175 10.2708 15.7011 10.0793 15.7989C9.04876 16.8299 8.127 17.9747 7.2387 19.1381C6.9704 19.4811 6.71402 19.8324 6.45751 20.1838L6.45748 20.1839C6.28215 20.4241 6.10677 20.6644 5.92748 20.9022C5.71829 21.2026 5.50473 21.5005 5.28574 21.7955C5.17392 21.9417 5.06811 22.0916 4.96336 22.2421L4.64009 22.6895L4.3789 23.1287L4.13866 23.5792C4.09596 23.6616 4.05278 23.7437 4.00959 23.8258L4.00946 23.8261C3.8943 24.0451 3.77915 24.264 3.67341 24.4875L3.25337 25.417L3.15058 25.6502L3.06015 25.8873L2.88096 26.3619L2.52859 27.3129L2.44268 27.5513L2.37018 27.794L2.2264 28.2797L1.94276 29.252C1.89227 29.4132 1.85474 29.5777 1.81872 29.7426L1.7075 30.2363C1.10102 32.8689 0.827775 35.5654 0.748499 38.3066L0.750771 38.3062C0.759533 38.3048 0.767654 38.3036 0.776537 38.3036C0.755437 38.5559 0.73765 38.8094 0.72288 39.0633C0.712005 39.2484 0.714504 39.4333 0.717009 39.6185C0.717941 39.6874 0.718873 39.7563 0.719118 39.8254C0.722886 40.0799 0.729216 40.3347 0.737957 40.5899C0.74121 40.6595 0.743585 40.7292 0.745961 40.799C0.752285 40.9847 0.758619 41.1706 0.781514 41.355C0.832757 41.8637 0.891985 42.3728 0.956641 42.8817L0.981055 43.0724L1.01512 43.2618L1.08429 43.6405L1.22687 44.3973C1.24454 44.483 1.26052 44.5691 1.2765 44.6551L1.27651 44.6552L1.27651 44.6552C1.30739 44.8215 1.33825 44.9877 1.38135 45.1516L1.56446 45.8997C1.5898 46.0022 1.61471 46.1048 1.63961 46.2074L1.63968 46.2076L1.63969 46.2077C1.73578 46.6035 1.83177 46.9989 1.9518 47.3879C2.01878 47.6157 2.0824 47.8442 2.14597 48.0726C2.21957 48.337 2.29309 48.6012 2.37169 48.8636C2.52647 49.3503 2.67568 49.8378 2.8169 50.3275C2.83604 50.3241 2.85367 50.3207 2.87296 50.3159C3.46391 52.4666 4.44144 54.5496 5.48649 56.6005C5.51985 56.6671 5.55305 56.7339 5.58627 56.8007L5.58674 56.8016C5.71396 57.0573 5.84146 57.3136 5.97888 57.5652L6.52401 58.507L6.80117 58.9768C6.86179 59.0811 6.92858 59.1817 6.99537 59.2824C7.02937 59.3337 7.06338 59.3849 7.09657 59.4367L7.69943 60.351C7.83141 60.5598 7.97759 60.7596 8.1238 60.9594L8.12387 60.9595L8.12397 60.9597C8.19392 61.0553 8.26387 61.1509 8.33227 61.2475L8.97477 62.1386L9.64906 63.0077C9.71685 63.0952 9.78371 63.1835 9.85057 63.2718L9.85063 63.2719C10.0051 63.4759 10.1595 63.6799 10.3256 63.8751C10.319 63.8805 10.3104 63.8855 10.3027 63.8897C11.8076 65.7897 13.6463 67.5518 15.5995 68.8699C15.7314 69.07 15.9741 69.2279 16.2184 69.3868L16.2185 69.3869C16.3893 69.498 16.5609 69.6096 16.696 69.7365C16.721 69.805 16.7899 69.8683 16.8695 69.9241C16.9281 69.9609 16.992 69.9941 17.049 70.0237C17.0603 70.0295 17.0712 70.0352 17.0818 70.0408C17.0933 70.0468 17.1043 70.0526 17.1148 70.0583C17.4028 70.3351 17.7245 70.5962 18.0646 70.8475L18.3231 71.0342C18.3867 71.0776 18.4529 71.1178 18.5193 71.1581L18.5195 71.1581C18.5451 71.1737 18.5707 71.1892 18.5962 71.205C18.7807 71.3167 18.968 71.4266 19.1567 71.5358L19.7247 71.8619C19.7596 71.8814 19.7942 71.9015 19.8287 71.9215L19.8294 71.9219C19.889 71.9565 19.9486 71.9911 20.0097 72.023L20.3017 72.1711C20.6893 72.3698 21.0696 72.5735 21.4317 72.792C21.5858 72.8915 21.7492 72.9773 21.914 73.0639L21.9386 73.0768L22.4626 73.353L22.997 73.632L23.2679 73.7724C23.3272 73.803 23.3884 73.8296 23.4498 73.8563C23.4824 73.8704 23.5149 73.8846 23.5473 73.8993C23.7021 73.9665 23.8575 74.0352 24.0138 74.1043L24.014 74.1044C24.6181 74.3715 25.2354 74.6445 25.8864 74.8571C27.499 75.4627 29.2477 75.9016 31.0228 76.1745C32.7994 76.446 34.6077 76.5372 36.354 76.4677C38.1007 76.3981 39.7858 76.1775 41.3324 75.8495C41.3293 75.8414 41.3258 75.8322 41.3241 75.8237C44.3976 75.2543 47.4289 74.2921 50.2973 72.9861C53.1582 71.6674 55.8636 70.0243 58.2909 68.1104C58.6999 67.9985 59.0733 67.6143 59.4202 67.2573C59.713 66.956 59.987 66.674 60.2478 66.5916C60.4609 66.3192 60.7225 66.1642 60.9621 66.0222L61.0194 65.9882C61.2759 65.8388 61.507 65.7028 61.6208 65.46C61.8298 65.4079 61.9969 65.2205 62.0941 65.0305L62.0948 65.0419L62.7261 64.4761C62.8623 64.3535 62.995 64.2272 63.1277 64.1009C63.1999 64.0322 63.272 63.9636 63.3448 63.8954C63.4166 63.8265 63.4893 63.7582 63.5619 63.6899L63.5621 63.6897C63.6959 63.5639 63.8298 63.4379 63.9592 63.3078L64.561 62.706L64.862 62.4041L65.155 62.0946L65.7417 61.4743C65.9364 61.2648 66.1404 61.0349 66.3324 60.8137L66.4269 60.7028C66.5866 60.5156 66.7467 60.328 66.8988 60.1379C68.3744 58.3235 69.6543 56.4103 70.8083 54.4128C71.9572 52.4145 72.9763 50.3349 73.8257 48.1721C74.6812 46.0128 75.3666 43.7697 75.8445 41.4646C75.8489 40.7522 75.9886 39.9491 76.1568 39.0957L76.4113 37.7848C76.4299 37.6708 76.4492 37.5567 76.4684 37.4426C76.5247 37.1093 76.5811 36.7755 76.6198 36.4423C76.8435 34.6582 76.723 32.9094 75.7063 32.0095C75.3601 31.833 75.0647 32.0122 74.8007 32.2954C74.6454 32.4619 74.5028 32.6643 74.3665 32.8578C74.27 32.9949 74.1765 33.1275 74.0839 33.2399C73.7532 34.1218 73.7633 35.069 73.7734 36.0214V36.0223C73.7756 36.2277 73.7778 36.4332 73.7766 36.6385C73.7933 37.0676 73.523 37.3811 73.1806 37.7783C73.1363 37.8297 73.0907 37.8826 73.0444 37.9373C72.8435 38.1761 72.6453 38.452 72.4592 38.8008C72.3683 38.9756 72.2859 39.1692 72.217 39.3874C72.148 39.6055 72.0806 39.8468 72.0373 40.1193C71.8315 41.1412 71.5885 42.1584 71.2961 43.1645C71.006 44.1707 70.6874 45.1709 70.3212 46.156C69.9581 47.1418 69.5638 48.1174 69.1372 49.0793C68.707 50.0397 68.2472 50.9872 67.758 51.9182C66.7792 53.7783 65.6842 55.5809 64.464 57.2546C64.1579 57.6709 63.848 58.0839 63.5252 58.4769C63.4194 58.6113 63.31 58.7397 63.2006 58.868L63.2006 58.8681C63.1463 58.9318 63.0921 58.9954 63.0384 59.0597L62.5178 59.6434C61.8263 60.4242 61.0981 61.1685 60.3624 61.9001C60.145 61.9178 59.8601 62.1814 59.7501 62.3956C59.5968 62.4773 59.501 62.6203 59.4066 62.7704C59.312 62.9197 59.2137 63.071 59.0663 63.1757C58.8362 63.3279 58.6175 63.5008 58.4047 63.6844C58.1872 63.8624 57.9742 64.0493 57.7629 64.2363C57.3455 64.616 56.9061 64.9631 56.4522 65.23C55.3669 66.1901 54.1588 67.0233 52.9075 67.7765C51.6557 68.5311 50.3612 69.2061 49.0722 69.8621C46.3708 71.2649 43.4697 72.2562 40.5154 72.7507C39.0387 72.9986 37.5498 73.1229 36.0698 73.1202C34.5898 73.1146 33.1197 72.9796 31.679 72.723C30.1924 72.4492 28.729 72.0701 27.2988 71.553C27.155 71.5001 27.0105 71.4491 26.866 71.3981L26.8656 71.3979C26.6516 71.3224 26.4377 71.2469 26.2259 71.1653L25.1747 70.7171C25.1111 70.6891 25.0469 70.6627 24.9827 70.6363L24.9826 70.6363C24.8707 70.5902 24.7588 70.5442 24.6504 70.49L24.1376 70.2351C24.0065 70.1685 23.8743 70.1043 23.742 70.0401L23.7419 70.04C23.5308 69.9375 23.3197 69.835 23.1131 69.7229C22.9148 69.6075 22.7148 69.4954 22.5147 69.3833L22.5141 69.3829C22.0466 69.1209 21.579 68.8587 21.1336 68.555L20.6482 68.245C20.4855 68.1428 20.3229 68.0406 20.1692 67.9239L19.2305 67.2492C18.0055 66.3117 16.8071 65.3229 15.7168 64.2078L15.2996 63.7992C15.2139 63.7106 15.1305 63.6195 15.0471 63.5284C14.9987 63.4755 14.9503 63.4226 14.9014 63.3702L14.1075 62.5089L13.3536 61.609C13.3091 61.5545 13.2635 61.501 13.2179 61.4475L13.2178 61.4475C13.1365 61.3521 13.0552 61.2567 12.9801 61.1559L12.6241 60.6877C11.6557 59.4543 10.7989 58.1309 9.99811 56.7794L9.41681 55.7538C9.29691 55.5336 9.18382 55.3098 9.07077 55.0861L9.07075 55.0861C9.0066 54.9591 8.94246 54.8322 8.8771 54.706L8.60959 54.1813L8.36497 53.6454L7.87832 52.5735L7.44261 51.4824L7.22619 50.9373L7.03492 50.3837L6.65497 49.2776L6.32838 48.1584C6.33697 48.1574 6.34677 48.1559 6.35506 48.1534C5.74994 46.1445 5.31227 44.0333 5.06872 41.9202C4.82426 39.807 4.7697 37.6935 4.88665 35.6731L4.86661 35.6836C4.92524 35.1611 4.99487 34.6646 5.07218 34.1746C5.10534 33.9286 5.16819 33.689 5.23164 33.4484C5.28831 33.234 5.35025 33.0193 5.41717 32.8034C5.40165 32.8415 5.37889 32.8752 5.33759 32.8968C5.35381 32.8076 5.36897 32.718 5.38415 32.6284L5.38417 32.6282C5.41256 32.4605 5.441 32.2925 5.47655 32.1261C5.51136 32.1741 5.5198 32.2234 5.5186 32.2765C5.61327 31.8044 5.73067 31.3401 5.84959 30.8697L5.8496 30.8696L5.84962 30.8696C5.8829 30.738 5.91629 30.6059 5.94934 30.473C5.83661 30.2002 6.0048 29.6042 6.27533 29.3395C6.22258 29.2244 6.23645 29.0564 6.28453 28.8949C6.33095 28.7329 6.43282 28.5849 6.52189 28.498L6.52446 28.5002L6.52461 28.5002C6.53041 28.4966 6.53476 28.4939 6.54073 28.4932C6.48256 28.2941 6.57721 28.1346 6.70757 27.9862L6.73229 28.0065L7.02996 27.1808L7.37012 26.3786C7.46134 26.1497 7.56841 25.9268 7.67548 25.7039L7.73258 25.5849L7.92052 25.1904L8.01427 24.993L8.1172 24.7997L8.5282 24.0258C8.61602 23.8631 8.7106 23.7037 8.80518 23.5443C8.86009 23.4517 8.915 23.3592 8.96858 23.266L9.19043 22.8867L9.42842 22.5161C9.48915 22.4228 9.54906 22.3291 9.60897 22.2354L9.60905 22.2353C9.70729 22.0817 9.80553 21.928 9.90738 21.7764C9.91446 21.7812 9.92185 21.7877 9.92818 21.7937C10.6492 20.6561 11.5024 19.5986 12.4044 18.5868C12.493 18.491 12.5802 18.3939 12.6673 18.2969C12.8068 18.1417 12.9463 17.9865 13.0917 17.8361L13.7972 17.101C13.9793 16.9209 14.1598 16.7392 14.3404 16.5575L14.3405 16.5574L14.3405 16.5573C14.6393 16.2567 14.9382 15.9558 15.2449 15.6619C15.2157 15.6758 14.9563 15.9031 14.698 16.1391L14.156 16.6666L14.1182 16.6223C14.9347 15.8059 15.8164 15.0503 16.7092 14.3102C16.8402 14.2085 16.9702 14.1057 17.1002 14.0029L17.1005 14.0027C17.4257 13.7455 17.7509 13.4884 18.0898 13.2485C18.1758 13.1865 18.2611 13.1235 18.3463 13.0604L18.3466 13.0603L18.3466 13.0602C18.4947 12.9507 18.6428 12.8412 18.7948 12.7372L19.5145 12.2466C19.5223 12.3025 19.4913 12.3419 19.4516 12.3781C20.6123 11.5708 21.8376 10.8566 23.1 10.2336C24.3654 9.61564 25.6615 9.08059 26.9646 8.60476C28.2673 8.12532 29.5847 7.73176 30.8907 7.35477C31.0334 7.31662 31.1753 7.27513 31.3171 7.23368L31.3172 7.23366C31.5013 7.17984 31.6851 7.12609 31.8703 7.07979C32.1977 6.99541 32.5235 6.90757 32.8484 6.81581C33.1519 6.74197 33.4542 6.66274 33.7562 6.58359L33.7562 6.58358L33.7563 6.58356C34.1044 6.49232 34.4521 6.4012 34.8006 6.31858C34.9143 6.37192 35.0662 6.3436 35.1745 6.27865C35.3972 6.32973 35.632 6.30819 35.8699 6.27474L35.9415 6.26459C36.1559 6.23398 36.3719 6.20313 36.5792 6.23119C36.827 6.25545 37.0924 6.26645 37.3044 6.13145L37.2919 6.10523C38.3328 6.01602 39.3591 6.07583 40.3776 6.16718C40.7864 4.91346 41.3721 3.73866 42.1051 2.67254ZM45.9053 3.1654C44.9923 4.10802 44.2554 5.22237 43.7488 6.45428C43.7536 6.45471 43.7585 6.45514 43.7633 6.45556C43.9343 6.47068 44.1054 6.48581 44.2746 6.51175C44.5076 6.54806 44.7396 6.58844 44.9691 6.6359C48.2728 7.37044 51.4444 8.60446 54.341 10.2825C57.1496 11.9135 59.7015 13.9573 61.8513 16.3399C62.7656 15.041 63.3897 13.5241 63.628 11.8842C62.5184 10.9193 61.3342 10.0474 60.1138 9.24332C57.528 7.18918 54.5084 5.62413 51.3397 4.54334C49.5639 3.94124 47.7434 3.48926 45.9053 3.1654ZM56.6801 20.2154C55.2486 18.7952 53.6298 17.5718 51.8887 16.5699C49.7113 15.3167 47.34 14.4085 44.8868 13.8839C44.8244 13.8775 44.7622 13.8705 44.7 13.8635C44.5835 13.8504 44.4672 13.8373 44.3504 13.8278L43.8127 13.79C43.7176 13.7647 43.6211 13.7419 43.5233 13.7207C43.7117 14.2739 43.9456 14.8062 44.2206 15.3132C44.2449 15.3156 44.2691 15.318 44.2933 15.3204L44.2933 15.3204C44.3683 15.3279 44.4428 15.3353 44.517 15.3411L44.5206 15.3415C44.6915 15.3574 44.8599 15.373 45.0244 15.3994C45.0258 15.3935 45.0352 15.3886 45.0746 15.3889C45.1897 15.4213 45.3052 15.4523 45.4207 15.4833L45.4208 15.4833C45.6822 15.5534 45.9434 15.6236 46.2001 15.7094C45.8072 15.6818 46.1026 15.7202 46.3387 15.7508C46.5316 15.7759 46.685 15.7958 46.3913 15.7704L46.6646 15.8632C46.7205 15.8826 46.7761 15.9038 46.832 15.9251C46.8678 15.9388 46.9037 15.9525 46.9399 15.9657L47.5042 16.1743L48.0782 16.4061C48.095 16.413 48.1118 16.4198 48.1287 16.4265C48.1478 16.4341 48.167 16.4417 48.1862 16.4493C48.2477 16.4736 48.3094 16.4979 48.3704 16.5247L48.6622 16.6535C48.7346 16.6863 48.808 16.7178 48.8816 16.7495C49.006 16.8029 49.1311 16.8567 49.2537 16.9178L49.8487 17.2022C49.9308 17.2448 50.0133 17.2873 50.096 17.3299L50.0961 17.3299C50.4096 17.4913 50.7263 17.6543 51.0354 17.8363C52.4228 18.6139 53.7567 19.5825 54.9035 20.6467C55.5145 20.5548 56.1084 20.4094 56.6801 20.2154ZM57.4222 23.4074C57.9195 23.2519 58.4048 23.0685 58.8761 22.8592C59.6843 24.0413 60.373 25.3029 60.9166 26.6247C61.4491 27.8042 61.8599 29.0515 62.1506 30.3047C62.4458 31.5595 62.632 32.826 62.7742 34.0852C62.731 35.0293 62.6623 35.9625 62.5847 36.8905L62.1403 37.8268C61.9239 36.7773 61.7062 35.7288 61.461 34.6959C61.4756 34.7473 61.4891 34.7757 61.4891 34.7757C61.4684 33.9995 61.3677 33.2799 61.248 32.5817C61.2047 32.33 61.1591 32.0811 61.1136 31.8328L61.1136 31.8326L61.1135 31.8326C61.0328 31.3918 60.9523 30.9527 60.8857 30.5022L60.8708 30.4932C60.9379 30.4622 60.7702 29.8078 60.5291 29.1396L60.3519 28.6395C60.2875 28.4786 60.2269 28.3238 60.1746 28.1832C60.1543 28.1258 60.1346 28.071 60.116 28.0193L60.116 28.0193C60.0429 27.8167 59.9872 27.662 59.9838 27.5823C59.8931 27.3212 59.802 27.0835 59.6923 26.8718L59.664 26.8156L59.664 26.8155C59.5675 26.6239 59.4768 26.4438 59.3741 26.2791L59.0477 25.7577C59.0021 25.6847 58.9551 25.6132 58.9081 25.5418L58.9077 25.5412C58.8594 25.4676 58.8112 25.3942 58.7647 25.3195C58.7906 25.3475 58.7656 25.2571 58.697 25.1004C58.6743 25.0493 58.648 24.9906 58.6156 24.9279C58.5816 24.8662 58.5431 24.7997 58.5005 24.7301C58.4153 24.591 58.3135 24.4398 58.199 24.2927C58.1539 24.2269 58.0657 24.1304 57.9567 24.0111L57.9566 24.0111L57.9564 24.0108C57.8854 23.9331 57.8054 23.8456 57.7228 23.7506C57.6767 23.6958 57.6272 23.6404 57.5766 23.5837C57.5254 23.5264 57.4731 23.4678 57.4222 23.4074ZM40.467 14.8738C40.2955 14.3827 40.1513 13.8788 40.0363 13.364C39.8945 13.362 39.7522 13.36 39.6096 13.3625L38.9685 13.3833C38.7666 13.3869 38.5651 13.4023 38.3636 13.4176L38.326 13.4204C38.2496 13.4265 38.1731 13.4319 38.0966 13.4373C37.9589 13.4471 37.8213 13.4569 37.6841 13.47C37.5422 13.487 37.4001 13.5021 37.2582 13.5172L37.258 13.5172C36.9747 13.5473 36.6924 13.5773 36.4138 13.6218L35.7882 13.7101L35.1731 13.8138L34.8687 13.863L34.5687 13.9208L33.976 14.0292L33.9346 14.1383C33.3279 14.3008 33.1695 14.3106 33.0529 14.3178C33.0041 14.3208 32.9626 14.3233 32.8986 14.3364C28.8995 15.4806 25.1435 17.5703 22.056 20.2676C18.9655 22.9602 16.5523 26.2992 15.1837 29.8171C15.1069 29.9818 15.0044 30.2364 14.8901 30.5334C14.8324 30.6729 14.7855 30.8262 14.7373 30.984L14.7291 31.0108L14.5729 31.5208L14.4201 32.0243L14.3032 32.492C14.2292 32.7813 14.164 33.018 14.1154 33.1537C13.7405 35.5759 13.6187 38.1669 13.8747 40.5875L13.8547 40.497L13.9224 41.0659L13.9397 41.208L13.9635 41.3491L14.0113 41.6312C14.0107 41.6803 14.0001 41.6879 13.9871 41.6527C14.0222 41.8108 14.0563 41.9805 14.0896 42.1597C14.0967 42.1985 14.1038 42.2378 14.1109 42.2775C14.1366 42.421 14.1632 42.5697 14.1982 42.721L14.3202 43.3218C14.3354 43.395 14.3492 43.4691 14.3631 43.5437C14.3881 43.6783 14.4134 43.8145 14.448 43.9494L14.5946 44.5869C14.6114 44.6572 14.627 44.7279 14.6425 44.7986L14.6426 44.7987C14.6741 44.9416 14.7056 45.0843 14.7466 45.223C14.7855 45.3626 14.8229 45.5016 14.8599 45.6389C14.9332 45.9114 15.0048 46.1774 15.0826 46.4283L15.0419 46.3446L15.3268 47.1588C15.3359 47.1842 15.3448 47.2096 15.3538 47.2351C15.3614 47.2567 15.3689 47.2783 15.3765 47.3C15.4073 47.3882 15.4381 47.4764 15.4706 47.5638L15.6305 47.9617L15.951 48.7545L16.3045 49.5294L16.4813 49.9156L16.6737 50.2935L17.0597 51.0466L17.4762 51.7805L17.6852 52.146L17.9088 52.5024L18.3566 53.2128L18.8341 53.9019L19.0733 54.2453L19.327 54.578L19.8346 55.2418L20.372 55.881L20.6406 56.2002L20.9239 56.5066L21.491 57.1181L22.0867 57.702L22.3851 57.9932C22.4499 58.0546 22.5172 58.1135 22.5845 58.1724C22.6219 58.2051 22.6593 58.2379 22.6964 58.2711L23.3224 58.8229C23.4614 58.9391 23.604 59.0514 23.7465 59.1637L23.7469 59.164C23.823 59.224 23.8992 59.284 23.9748 59.3446L24.3024 59.6039C24.3719 59.6611 24.4458 59.7125 24.5198 59.7639L24.5198 59.764C24.5604 59.7922 24.601 59.8204 24.6408 59.8496L25.3243 60.3332C25.4002 60.3901 25.481 60.44 25.5617 60.49C25.5999 60.5136 25.6381 60.5373 25.6757 60.5616L26.0312 60.7846C26.3852 61.0192 26.7583 61.2232 27.132 61.4275C27.251 61.4926 27.3701 61.5577 27.4887 61.6238C27.5107 61.6356 27.5326 61.6478 27.5545 61.66L27.5546 61.6601C27.594 61.6821 27.6335 61.7042 27.6742 61.7237L27.8647 61.8145L28.2461 61.9962L28.6278 62.1782L28.8188 62.2692L29.0151 62.3489C29.1303 62.3951 29.2454 62.4421 29.3605 62.4891C29.7692 62.6561 30.1789 62.8235 30.6034 62.954C31.6744 63.3344 32.7943 63.6133 33.9361 63.8017C34.9954 63.9989 36.1202 64.0939 37.2742 64.0772C38.4285 64.0612 39.6109 63.9337 40.79 63.7054C43.1523 63.2507 45.4855 62.3898 47.684 61.319C47.7884 61.2764 48.0214 61.1751 48.3357 61.0026L48.8745 60.7109L49.5147 60.3318C50.4276 59.7777 51.5387 59.0108 52.5837 58.1644C53.6317 57.3217 54.6125 56.4026 55.3479 55.64C55.4778 55.5114 55.596 55.3833 55.7075 55.2623C55.7577 55.2079 55.8065 55.155 55.8545 55.1041C55.8918 55.0636 55.9285 55.0241 55.9641 54.9857C56.0743 54.8671 56.1755 54.7581 56.2619 54.656C56.4944 54.3889 56.6563 54.2 56.7247 54.1155L56.2993 54.4992C56.1584 54.6274 56.0165 54.7544 55.8701 54.8766C55.995 54.7446 56.1119 54.6117 56.2258 54.4822L56.2259 54.4821L56.3121 54.3842C56.3397 54.3527 56.3672 54.3216 56.3946 54.2907C56.4217 54.2601 56.4486 54.2298 56.4755 54.1997C56.5601 54.1047 56.643 54.0115 56.7224 53.9182L57.1004 53.4716L57.2824 53.2577L57.4586 53.0403C57.9199 52.4665 58.3035 51.9329 58.6607 51.4026C59.0169 50.872 59.3447 50.3444 59.6687 49.7737C59.9924 49.2029 60.3119 48.5887 60.6337 47.8784L60.5795 48.0444C60.637 47.9447 60.6726 47.8482 60.7316 47.6885C60.7894 47.5323 60.8695 47.3155 61.0142 46.976C61.0522 46.8828 61.0968 46.7811 61.146 46.6686L61.1462 46.6683C61.1882 46.5723 61.2338 46.4684 61.2817 46.355L61.6616 45.4865L61.6658 45.4766L61.6659 45.4765C61.9572 44.8022 62.3354 43.9267 62.7751 42.749L62.7864 42.7524C62.8031 42.6966 62.8114 42.6586 62.8197 42.6207L62.8197 42.6206C62.8338 42.556 62.8478 42.4916 62.9031 42.3402L62.783 42.6601L62.6203 43.0655C62.6833 42.8122 62.7349 42.573 62.7867 42.3115C62.8136 42.1811 62.8431 42.0458 62.8762 41.9012C62.9064 41.7557 62.9409 41.6008 62.982 41.4323C63.0313 41.2928 63.0673 41.2496 63.0893 41.2401L63.1195 41.1029C63.1706 40.871 63.2217 40.6391 63.2688 40.4062C63.2865 40.3086 63.3053 40.2113 63.3242 40.114C63.3594 39.932 63.3946 39.7501 63.4224 39.5665L63.5871 39.0625C63.599 38.8945 63.5863 38.802 63.5735 38.7091V38.7091C63.5664 38.6569 63.5592 38.6046 63.5564 38.5388C63.5494 38.3555 63.5706 38.0678 63.6839 37.3766C63.593 37.68 63.6056 37.3827 63.6166 37.1227V37.1226V37.1226C63.6243 36.942 63.6312 36.7794 63.6022 36.8482C63.6176 36.7984 63.6361 36.7017 63.6548 36.6037C63.6619 36.5663 63.6691 36.5286 63.6762 36.4932C63.6775 36.4332 63.6797 36.3693 63.6819 36.3023L63.6819 36.3018L63.6819 36.3016C63.6875 36.1372 63.6936 35.9543 63.6895 35.7627L63.6889 35.6677C63.6873 35.4266 63.6857 35.1759 63.6695 34.9359L63.6474 34.543C63.6422 34.4529 63.6327 34.3666 63.6237 34.2856L63.6236 34.2847C63.6202 34.2537 63.6168 34.2234 63.6139 34.194C63.5902 33.9808 63.5674 33.8118 63.5475 33.7165L63.5393 34.2381L63.5341 34.4965L63.5178 34.7893C63.5142 34.847 63.511 34.9062 63.5077 34.9664L63.5077 34.9666C63.4995 35.1199 63.4908 35.2806 63.4727 35.4442C63.4648 35.5198 63.4577 35.5962 63.4507 35.6728L63.4507 35.673C63.4365 35.8273 63.4222 35.9828 63.4003 36.1357C63.3913 36.201 63.3826 36.2658 63.374 36.3301L63.3739 36.3315V36.3315C63.3523 36.4923 63.3313 36.6492 63.3072 36.798L63.2045 37.3665C63.1798 37.5031 63.1503 37.6217 63.1265 37.7177L63.1265 37.7178L63.1114 37.779C63.1532 37.4955 63.1687 37.3341 63.1738 37.2557C63.1797 37.1774 63.1754 37.1822 63.1657 37.2294L63.1241 37.4582C63.1051 37.5496 63.0846 37.6429 63.0689 37.6979L63.0882 37.7765C63.0622 37.946 63.0383 38.0726 63.0163 38.1722C62.9924 38.2716 62.969 38.344 62.9486 38.4059C62.9402 38.4308 62.9322 38.454 62.9244 38.4764C62.8933 38.5657 62.8659 38.6444 62.8388 38.778C62.8438 38.7788 62.8508 38.7716 62.8582 38.7642L62.861 38.7614L62.8578 38.7168C62.8747 38.6867 62.8806 38.7069 62.8823 38.744C62.898 38.738 62.9069 38.7712 62.874 38.9545L62.8728 38.9182C62.8334 39.2011 62.743 39.686 62.6908 39.8942L62.6321 39.8869C62.6406 40.146 62.4237 40.9718 62.1392 41.7954C61.9621 42.32 61.7538 42.8412 61.5971 43.2332L61.597 43.2333C61.507 43.4585 61.434 43.6411 61.3937 43.7573C61.2588 44.0414 61.1405 44.369 61.0156 44.7146L61.0156 44.7147C60.8705 45.1165 60.7165 45.5426 60.5175 45.953C60.1723 46.7023 60.118 46.7523 60.0518 46.8132C60.0098 46.8518 59.963 46.8948 59.8342 47.1235C59.6033 47.5506 59.6839 47.445 59.7663 47.337C59.827 47.2575 59.8888 47.1767 59.8278 47.3064L59.7873 47.3738C59.6266 47.6412 59.4663 47.9082 59.2984 48.1703C59.5216 47.7299 59.4297 47.8492 59.3535 47.9481C59.3393 47.9666 59.3256 47.9844 59.3146 47.9977C59.1213 48.364 58.8444 48.8142 58.5995 49.2123L58.5628 49.2721L58.5054 49.3654C58.4007 49.5355 58.3046 49.6916 58.2322 49.8253C58.1431 49.981 58.0848 50.1042 58.0746 50.1766C57.9328 50.3831 57.8146 50.5408 57.7188 50.6687L57.7187 50.6689L57.6717 50.7316C57.5651 50.8677 57.4858 50.9653 57.4193 51.0466L57.3542 51.1246C57.2547 51.2434 57.1766 51.3368 57.0555 51.5037C57.0964 51.4598 57.1489 51.3983 57.2005 51.3379C57.2935 51.229 57.3836 51.1235 57.3974 51.1309C57.0867 51.4829 57.2796 51.3209 57.3991 51.171C57.3077 51.3246 57.118 51.5836 56.8776 51.88C56.6348 52.1756 56.3432 52.5008 56.0432 52.8121C55.862 53.0057 55.6829 53.1915 55.5217 53.3587L55.5216 53.3589C55.1609 53.7331 54.8897 54.0144 54.8858 54.0821L54.8686 54.0659C54.8524 54.133 54.8747 54.1592 54.8956 54.1839C54.9329 54.2278 54.9658 54.2667 54.7684 54.5233C54.6816 54.5949 54.5936 54.6649 54.5033 54.7326L54.1743 55.1172C53.9661 55.2888 53.9866 55.2384 53.9997 55.2063C54.0018 55.2011 54.0038 55.1963 54.0045 55.1931C54.0049 55.1912 54.0049 55.1897 54.0043 55.1891C53.4448 55.7921 52.5558 56.5198 51.7725 57.1285C51.9947 57.028 52.2135 56.921 52.4335 56.8134C52.5398 56.7614 52.6465 56.7092 52.7539 56.6576L52.1606 57.0837C52.0401 57.1721 51.9137 57.2583 51.7893 57.343L51.7891 57.3432C51.6936 57.4083 51.5993 57.4726 51.5099 57.5364C51.409 57.6088 51.3111 57.6767 51.2206 57.7396C51.1265 57.8048 51.0403 57.8647 50.9667 57.9185C50.8223 58.0243 50.7255 58.106 50.7042 58.148C50.5827 58.2106 50.4579 58.268 50.3334 58.3253L50.241 58.3679C50.0561 58.4704 49.9032 58.5584 49.776 58.6349L49.7525 58.6484C49.6347 58.7167 49.5377 58.7729 49.4592 58.8234C49.2912 58.93 49.2016 59.0034 49.1403 59.0627C49.1139 59.0886 49.0927 59.1118 49.0727 59.1337C49.0002 59.213 48.9426 59.2759 48.7068 59.395L48.6659 59.4138C48.4221 59.5262 48.179 59.6383 47.9304 59.7388C48.1648 59.6121 48.3929 59.4743 48.621 59.3365L48.6542 59.3164L48.5146 59.3897C48.3874 59.4567 48.2739 59.5164 48.1677 59.5687L47.7712 59.7541L47.402 59.9212L46.9832 60.0909C46.9836 60.0918 46.9775 60.0957 46.9779 60.0966C47.0204 60.079 47.0488 60.0695 47.057 60.0718L46.9546 60.1275C46.9207 60.172 46.8108 60.2517 46.6436 60.3539C46.4735 60.4501 46.2452 60.5668 45.9787 60.692C45.8826 60.7368 45.7882 60.778 45.6948 60.8188L45.6946 60.8189C45.6039 60.8584 45.5143 60.8975 45.4251 60.939C45.3848 60.9572 45.3444 60.9757 45.3039 60.9942L45.3038 60.9942C45.1613 61.0594 45.0159 61.1259 44.8579 61.1866L44.7784 61.2181L44.7782 61.2181C44.599 61.2892 44.4074 61.3651 44.1914 61.4376L44.1468 61.4515L44.1467 61.4515C43.9081 61.5257 43.6443 61.6077 43.3394 61.6823L43.0516 61.8743C42.994 61.8881 42.9365 61.9026 42.8791 61.917L42.879 61.917C42.7742 61.9433 42.6695 61.9696 42.5638 61.9921L42.0729 62.0937L42.0531 62.018C42.1068 62.0033 42.1634 61.9884 42.2224 61.9728C42.4219 61.92 42.6495 61.8599 42.8907 61.7789L43.3809 61.6228C43.4897 61.5854 43.5997 61.5453 43.711 61.5047C43.7715 61.4827 43.8323 61.4605 43.8936 61.4386C44.1416 61.3534 44.3888 61.2528 44.6325 61.1536L44.6334 61.1533C44.7326 61.1129 44.8312 61.0728 44.9291 61.034C45.2238 60.909 45.5064 60.7825 45.7651 60.6667L45.7657 60.6664L45.8708 60.6194L45.8759 60.5774C45.7846 60.6205 45.6905 60.6622 45.5958 60.7042C45.5161 60.7396 45.4359 60.7751 45.3564 60.8119C45.3076 60.8339 45.259 60.8562 45.2107 60.8784L45.2106 60.8784L45.2104 60.8785C45.0855 60.9358 44.9618 60.9926 44.8393 61.0413C44.7825 61.0648 44.7267 61.0881 44.6718 61.111L44.6716 61.1111C44.3999 61.2245 44.1543 61.327 43.9589 61.3876C43.7478 61.4467 43.2325 61.5554 43.4402 61.4273C43.3328 61.4854 43.2244 61.5404 43.1154 61.5953C42.6118 61.7603 42.2087 61.8663 41.867 61.9562L41.7006 62.0001L41.1766 62.1179L40.9376 62.1704L40.7026 62.2112L40.6345 62.2228C40.3438 62.2723 40.0453 62.3232 39.6745 62.3594C39.6374 62.3635 39.5995 62.3678 39.5609 62.3722C39.3923 62.3915 39.2091 62.4124 39.005 62.4226C38.9677 62.4247 38.9298 62.4271 38.8912 62.4297C38.8499 62.4324 38.8079 62.4354 38.7651 62.4385C38.5786 62.4519 38.3764 62.4664 38.1546 62.4672L38.3794 62.4938L38.3729 62.4945C38.122 62.5201 37.8713 62.5457 37.6651 62.5583C37.4571 62.5679 37.2943 62.5551 37.2232 62.5257C36.4542 62.5406 35.673 62.4744 34.9668 62.3801L34.4531 62.2951C34.4261 62.2903 34.3992 62.2858 34.3725 62.2813C34.3171 62.272 34.2624 62.2629 34.2089 62.251L33.9757 62.1975L33.9215 62.1847C33.6386 62.1183 33.3801 62.0575 33.1589 61.9797L32.9276 62.0235C32.8061 61.9985 32.6687 61.944 32.5348 61.891L32.5348 61.891C32.3179 61.805 32.1105 61.7228 31.9957 61.7756C31.9558 61.7666 31.9156 61.7588 31.8754 61.7509L31.8749 61.7508C31.802 61.7365 31.7291 61.7222 31.6578 61.7016L31.323 61.6128C31.1681 61.5591 31.0331 61.5206 30.9008 61.4829C30.8542 61.4696 30.8079 61.4564 30.7612 61.4427C30.7378 61.4352 30.714 61.4282 30.69 61.4211C30.6231 61.4012 30.5543 61.3809 30.4849 61.3493C30.3898 61.3084 30.2884 61.2606 30.1762 61.2014L30.1737 61.2002L30.0893 61.1547C30.0883 61.1573 30.0899 61.1605 30.0916 61.1639C29.6506 60.9663 29.6295 60.978 29.6087 60.9895L29.6063 60.9908C29.5953 60.9966 29.5801 61.0005 29.5023 60.9731C29.4229 60.9495 29.2871 60.8791 29.0326 60.7443C28.882 60.6371 28.7786 60.619 28.6518 60.5968L28.6461 60.5958C28.5814 60.5845 28.5106 60.5718 28.4245 60.5456C28.3815 60.5325 28.3348 60.5161 28.2831 60.4949C28.2322 60.4722 28.178 60.4414 28.1173 60.4055L27.686 60.0173L27.6331 59.9842C27.2347 59.735 26.9923 59.5834 26.6913 59.4238C26.6422 59.3964 26.591 59.3693 26.5376 59.341L26.5372 59.3408L26.5372 59.3407C26.4225 59.28 26.2974 59.2137 26.1591 59.1267C25.9577 58.9969 25.7186 58.8367 25.4176 58.6228C25.2781 58.5135 25.168 58.4033 25.0827 58.3103C24.9971 58.2178 24.9368 58.1418 24.9064 58.0877C24.8454 57.9793 24.904 57.9579 25.1163 58.0636C25.0036 58.0039 24.9244 57.963 24.8646 57.9321C24.7721 57.8843 24.726 57.8605 24.6745 57.8286L24.6378 57.8044C24.5569 57.7514 24.436 57.6722 24.1485 57.4432C24.0908 57.3327 24.1428 57.3611 24.2727 57.4321C24.2897 57.4414 24.3081 57.4514 24.3277 57.462C24.0302 57.1517 23.9486 57.1053 23.8563 57.0527C23.7861 57.0128 23.7098 56.9693 23.5275 56.8035C23.4888 56.7933 23.4475 56.784 23.4051 56.7745C23.2478 56.7391 23.0753 56.7003 22.9669 56.5998L23.1053 56.7778L23.0417 56.7236C22.8277 56.5415 22.6043 56.3512 22.3921 56.1351C22.1627 55.8935 21.9334 55.6342 21.7106 55.3561L21.7642 55.3446C21.6526 55.2263 21.5453 55.1041 21.4379 54.9817L21.4377 54.9815C21.3785 54.9141 21.3193 54.8466 21.2594 54.7798L21.2756 54.7048C21.234 54.6557 21.1919 54.607 21.1497 54.5584C21.074 54.471 20.9983 54.3836 20.9258 54.2935L20.5934 53.8676L20.6696 53.9959C20.59 53.8969 20.4206 53.6839 20.2382 53.4457C20.0637 53.2018 19.883 52.9275 19.7607 52.7225L19.7984 52.7181C19.7582 52.6462 19.716 52.5768 19.6743 52.508C19.6305 52.436 19.5872 52.3647 19.547 52.292C19.4669 52.151 19.3856 52.0137 19.3027 51.8785C19.2336 51.7652 19.1625 51.6539 19.0912 51.5426L19.0911 51.5424C18.9921 51.3876 18.8928 51.2325 18.7987 51.0711L18.5431 50.6545C18.5156 50.6087 18.4871 50.563 18.4584 50.517C18.3981 50.4204 18.3369 50.3224 18.2822 50.2185L18.2222 50.1093L18.2221 50.1092C18.0729 49.8379 17.9162 49.5529 17.761 49.2418C17.7945 49.2794 17.831 49.3155 17.8674 49.3516C17.883 49.367 17.8986 49.3824 17.9139 49.3979C17.8672 49.2715 17.8381 49.201 17.8126 49.1589C17.7878 49.1186 17.7667 49.1045 17.7436 49.0892L17.741 49.0874C17.6928 49.0552 17.6353 49.0128 17.5183 48.7137L17.5818 48.65C17.4162 48.4159 17.3421 48.2487 17.3043 48.091C17.2894 48.0267 17.2787 47.9647 17.2678 47.9011C17.2519 47.8081 17.2354 47.7118 17.2041 47.6006L17.1695 47.8103L16.9183 47.1236C16.6934 46.4124 16.8549 46.5801 16.9518 46.6807C16.9569 46.686 16.9618 46.6911 16.9665 46.6959C16.9689 46.6984 16.9712 46.7007 16.9735 46.703L16.7111 46.2183L16.7679 46.0864C16.6363 45.9025 16.6152 45.8058 16.5816 45.6519C16.5534 45.5225 16.5163 45.3527 16.3975 45.0567C16.4046 45.0319 16.4193 45.0399 16.4318 45.0468C16.4523 45.058 16.467 45.0661 16.434 44.9232C16.3206 44.6784 16.2258 44.4278 16.1307 44.1763L16.1307 44.1761C16.0895 44.0673 16.0483 43.9582 16.0055 43.8494L16.2338 44.5066L16.0759 44.4618C15.8956 44.0238 15.85 43.7532 15.8042 43.4816C15.7791 43.333 15.754 43.1841 15.7067 43.0073L15.8187 43.348C15.7182 42.9379 15.6802 42.7182 15.6597 42.5427C15.6433 42.4007 15.6355 42.2877 15.6241 42.1238L15.6153 41.9981L15.6151 42.0057C15.6112 42.1555 15.6056 42.3728 15.537 42.0436C15.5127 41.912 15.5225 41.8802 15.5339 41.8433C15.5439 41.811 15.555 41.7748 15.5456 41.6645C15.4468 41.6235 15.2896 41.0308 15.2904 40.4771C15.3044 40.4825 15.3186 40.4927 15.3308 40.5274C15.3248 40.4992 15.3186 40.4738 15.3127 40.4492C15.2896 40.3538 15.2692 40.2696 15.2675 40.075L15.387 40.2081C15.3704 40.156 15.3534 40.1038 15.3364 40.0515L15.3363 40.0512L15.3363 40.0512C15.3037 39.9513 15.271 39.8511 15.2413 39.7505C15.2471 39.6114 15.2308 39.4452 15.2172 39.3065C15.2001 39.1323 15.1873 39.0015 15.2279 39.0225L15.258 39.1988L15.2341 38.6082C15.2319 38.482 15.234 38.3558 15.236 38.2295C15.2372 38.1589 15.2383 38.0882 15.2387 38.0176L15.2459 37.4273C15.245 37.3441 15.2507 37.2613 15.2565 37.1785L15.2597 37.1327L15.2794 36.8384L15.3653 36.81C15.3162 36.6962 15.3405 36.3982 15.3627 36.1268L15.3657 36.0905C15.4042 35.8114 15.4352 35.5707 15.3589 35.6013C15.3909 35.4928 15.4156 35.3298 15.4365 35.1502L15.4658 34.8734C15.4741 34.8099 15.4842 34.747 15.494 34.686C15.4985 34.6579 15.5029 34.6302 15.5071 34.603C15.5624 34.2584 15.613 34.0027 15.6715 34.1455L15.7628 33.6052C15.7991 33.4354 15.8319 33.2725 15.8627 33.1134L15.9504 32.6441L15.9929 32.4119L16.0497 32.182C16.1263 31.8735 16.208 31.5548 16.308 31.2018C16.4294 30.8561 16.5725 30.4774 16.75 30.0433C16.8436 29.901 16.9609 29.6916 17.0843 29.4372L17.1796 29.2392L17.2875 29.0312L17.5109 28.5844C17.5559 28.4883 17.6077 28.3937 17.6599 28.2984L17.6599 28.2983C17.6922 28.2394 17.7246 28.1802 17.7556 28.1202C17.7878 28.0612 17.8192 28.0016 17.8506 27.9422L17.8506 27.9421C17.9018 27.8452 17.9528 27.7485 18.0066 27.6545L18.2667 27.2124C18.3506 27.0693 18.4313 26.9317 18.5163 26.8079C19.1168 25.8004 19.6766 25.0048 20.2881 24.2407C20.9006 23.4776 21.5564 22.7355 22.4327 21.8958C22.5844 21.7911 22.7392 21.674 22.8966 21.5471C22.95 21.5044 23.0045 21.4616 23.0597 21.4182L23.0599 21.4181L23.0599 21.4181C23.1681 21.3331 23.2789 21.2461 23.3887 21.1541L23.6408 20.9423L23.9019 20.7303L24.433 20.2943C25.1535 19.7171 25.9175 19.1647 26.6141 18.7974C26.6851 18.7338 26.7576 18.6723 26.8302 18.6107L26.8302 18.6106C26.8686 18.578 26.9071 18.5453 26.9454 18.5123C27.1164 18.4376 27.2965 18.3448 27.4884 18.2458L27.4884 18.2458L27.4885 18.2458C27.5676 18.205 27.6486 18.1632 27.732 18.1212C27.8736 18.0473 28.0194 17.9688 28.1688 17.8869C28.2615 17.8358 28.3575 17.7872 28.4549 17.7381C28.5142 17.7081 28.574 17.6779 28.6338 17.6467C28.6846 17.6209 28.7356 17.5948 28.7868 17.5685C28.8959 17.5124 29.0062 17.4558 29.1187 17.4016L29.6242 17.1724C29.962 17.0161 30.3175 16.8942 30.6651 16.7782C30.9329 16.6391 31.0993 16.5673 31.1911 16.5277C31.2032 16.5225 31.2139 16.5178 31.2234 16.5137C31.228 16.5117 31.2324 16.5098 31.2364 16.508C31.173 16.528 31.0731 16.55 31.0258 16.5158C31.1333 16.4864 31.2659 16.4385 31.4034 16.389L31.4035 16.3889C31.5259 16.3448 31.6522 16.2992 31.768 16.2641C32.0132 16.1875 32.2039 16.1374 32.1907 16.1932L32.0932 16.2367C32.0865 16.2646 32.1572 16.2506 32.2744 16.2128C32.324 16.1966 32.382 16.1759 32.4462 16.1531L32.4463 16.1531C32.5334 16.1221 32.632 16.087 32.7368 16.0534C32.9182 15.9925 33.1153 15.9264 33.2965 15.8722C33.4774 15.817 33.6456 15.7864 33.7631 15.7758L33.4886 15.7393L34.2601 15.5569L34.0596 15.6298C34.2389 15.5669 34.4159 15.5179 34.5881 15.4702L34.6581 15.4508C34.704 15.4384 34.7494 15.4259 34.7946 15.4135C34.9409 15.3734 35.0839 15.3342 35.2248 15.3015L35.7647 15.187L36.0245 15.1347C36.0828 15.1237 36.1409 15.115 36.1986 15.1064L36.1986 15.1064C36.2257 15.1023 36.2527 15.0982 36.2796 15.094C36.3477 15.0842 36.4152 15.0742 36.4821 15.0642C36.746 15.025 37.0012 14.9871 37.2528 14.9691C37.3136 14.9639 37.3742 14.9584 37.4344 14.953L37.4344 14.953C37.6859 14.9303 37.9326 14.9081 38.179 14.9021C38.2551 14.8991 38.331 14.8957 38.4069 14.8923L38.4071 14.8922L38.4071 14.8922C38.6358 14.8819 38.8643 14.8716 39.096 14.8738C39.179 14.8732 39.2623 14.8721 39.3461 14.8709H39.3461C39.5741 14.8677 39.8058 14.8645 40.0442 14.8716L40.467 14.8738ZM63.9967 18.9152C65.0108 17.6538 65.8054 16.2088 66.3219 14.6384C67.0947 15.5801 67.7862 16.5911 68.364 17.6702C69.7257 20.0571 70.8867 22.6001 71.6027 25.2339C71.6199 25.3427 71.6372 25.4537 71.6548 25.5663C71.7959 26.4714 71.9534 27.481 72.2162 28.3053C72.312 28.553 72.3103 28.8027 72.3086 29.0515C72.3079 29.1548 72.3072 29.258 72.3135 29.3608C72.5243 30.0231 72.6779 30.9489 72.7335 31.7165C72.7541 32.0394 72.7072 32.3434 72.6605 32.6471C72.6088 32.9822 72.5573 33.3171 72.5963 33.6767C72.6896 35.9418 71.9074 37.0448 70.5988 38.0866C70.2485 38.3765 69.9521 37.8886 69.699 36.9835C69.4446 36.079 69.2363 34.7614 69.0267 33.4027L68.7106 31.3704L68.6833 31.2087C68.5821 30.6085 68.485 30.0329 68.3818 29.5197C68.1649 28.3969 67.9497 27.5513 67.8514 27.2515C67.8107 27.0945 67.7664 26.9397 67.7221 26.7851L67.7219 26.7846C67.6885 26.668 67.6552 26.5515 67.6234 26.4342L67.3718 25.6394C67.3178 25.4497 67.2501 25.2642 67.1824 25.0786L67.1823 25.0784C67.1546 25.0025 67.1269 24.9266 67.1001 24.8505C67.077 24.7867 67.0544 24.7227 67.0318 24.6588L67.0317 24.6585C66.9615 24.4602 66.8913 24.2619 66.807 24.0685L66.4915 23.2946L66.1419 22.5351C66.068 22.3628 65.9807 22.1966 65.8934 22.0305L65.8934 22.0304C65.8511 21.9498 65.8087 21.8692 65.7679 21.788L65.7269 21.7083L65.7268 21.708C65.6133 21.4872 65.4999 21.2667 65.3707 21.0544C65.1982 20.7891 65.0257 20.5153 64.8509 20.2378L64.8507 20.2374L64.8507 20.2374C64.5751 19.7999 64.2936 19.353 63.9967 18.9152Z" fill="#2B2CEB"/>
<path fill-rule="evenodd" clip-rule="evenodd" d="M53.3547 20.7621C59.072 20.7621 63.7357 16.1086 63.7357 10.3884C63.7357 4.66827 59.072 0 53.3547 0C47.6374 0 42.9736 4.66704 42.9736 10.3884C42.9736 16.1098 47.6361 20.7621 53.3547 20.7621Z" fill="#FFD500"/>
</svg>
