<?xml version="1.0" standalone="no"?>
<!DOCTYPE svg PUBLIC "-//W3C//DTD SVG 20010904//EN"
 "http://www.w3.org/TR/2001/REC-SVG-20010904/DTD/svg10.dtd">
<svg version="1.0" xmlns="http://www.w3.org/2000/svg"
 width="210.000000pt" height="269.000000pt" viewBox="0 0 210.000000 269.000000"
 preserveAspectRatio="xMidYMid meet">

<g transform="translate(0.000000,269.000000) scale(0.100000,-0.100000)"
fill="#000000" stroke="none">
<path d="M898 2584 c-206 -32 -390 -127 -534 -276 -102 -104 -154 -181 -187
-272 -37 -106 -54 -261 -38 -359 56 -349 279 -626 591 -735 65 -23 90 -26 195
-26 100 1 135 6 208 28 374 112 656 427 721 804 20 113 20 133 2 158 -13 17
-16 18 -31 3 -8 -8 -16 -33 -17 -55 0 -21 -9 -50 -18 -64 -10 -14 -26 -57 -35
-95 -22 -87 -80 -223 -127 -295 -109 -172 -315 -328 -513 -390 -91 -29 -232
-31 -325 -5 -165 46 -322 164 -423 319 -62 94 -87 151 -116 261 -56 212 -29
389 84 565 82 126 196 225 332 287 86 40 250 83 312 83 56 0 58 1 74 35 9 20
17 38 17 40 0 9 -82 3 -172 -11z"/>
<path d="M919 2350 c-174 -30 -362 -169 -442 -329 -46 -92 -61 -166 -54 -266
17 -230 139 -421 333 -517 76 -38 94 -42 173 -46 111 -5 174 8 281 60 68 33
101 57 167 124 68 69 90 100 127 176 24 51 51 120 59 153 17 67 22 175 8 175
-5 0 -16 33 -25 74 -21 94 -61 176 -86 176 -27 0 -35 -18 -16 -38 27 -30 48
-93 67 -200 10 -57 22 -109 28 -116 15 -18 -37 -159 -90 -241 -129 -199 -310
-304 -503 -293 -134 8 -219 49 -321 153 -49 50 -116 166 -123 214 -2 14 -8 33
-13 43 -17 31 -22 142 -10 214 33 195 195 364 409 425 37 10 87 19 111 19 35
0 42 3 37 16 -3 9 -6 20 -6 25 0 10 -45 10 -111 -1z"/>
<path d="M1611 2271 c-26 -51 -26 -53 4 -100 33 -53 61 -145 80 -266 19 -114
28 -130 54 -98 30 36 34 121 11 225 -21 95 -80 236 -111 264 -17 15 -19 13
-38 -25z"/>
<path d="M164 627 c-2 -7 -3 -80 -2 -162 l3 -150 25 0 25 0 3 163 2 162 -25 0
c-14 0 -28 -6 -31 -13z"/>
<path d="M300 474 l0 -165 23 3 c21 3 22 7 25 116 1 62 7 112 12 110 4 -2 46
-52 92 -113 73 -97 87 -110 113 -110 l30 0 0 160 0 160 -25 0 c-25 0 -25 0
-30 -117 l-5 -118 -88 120 c-78 105 -93 120 -118 120 l-29 0 0 -166z"/>
<path d="M670 475 l0 -166 28 3 c26 3 27 5 30 71 l3 67 74 0 c75 0 90 6 79 34
-5 13 -22 16 -81 16 l-74 0 3 41 3 42 80 1 c78 1 80 2 80 26 l0 25 -112 3
-113 3 0 -166z"/>
<path d="M946 484 c-36 -86 -66 -160 -66 -165 0 -5 11 -9 25 -9 21 0 29 9 45
45 l19 45 71 0 71 0 20 -45 c16 -37 24 -44 44 -43 14 1 25 7 25 13 0 6 -28 78
-63 160 -61 144 -65 150 -94 153 -31 3 -31 3 -97 -154z m144 -25 c0 -5 -22 -9
-50 -9 -27 0 -50 2 -50 5 0 2 12 30 26 62 l26 58 24 -54 c13 -29 24 -57 24
-62z"/>
<path d="M1240 513 c0 -103 3 -133 16 -152 35 -49 134 -66 200 -35 54 26 64
56 64 194 l0 120 -30 0 -30 0 0 -118 c0 -139 -7 -152 -82 -152 -69 0 -77 14
-80 150 l-3 115 -27 3 -28 3 0 -128z"/>
<path d="M1560 634 c0 -4 23 -37 50 -74 28 -37 50 -72 50 -78 0 -5 -24 -43
-54 -83 -30 -41 -51 -78 -46 -83 19 -19 59 5 95 59 21 30 42 55 46 55 5 0 22
-20 38 -44 43 -63 59 -76 88 -76 32 0 29 9 -38 100 l-52 71 20 27 c11 15 37
51 57 80 l38 52 -31 0 c-25 0 -37 -9 -72 -55 -23 -30 -44 -55 -48 -55 -3 1
-23 25 -44 55 -31 46 -43 55 -67 55 -17 0 -30 -3 -30 -6z"/>
<path d="M1283 200 c0 -36 2 -50 4 -32 2 17 2 47 0 65 -2 17 -4 3 -4 -33z"/>
<path d="M1850 245 c0 -9 -12 -20 -26 -25 -36 -14 -31 -61 9 -71 l27 -7 0 59
c0 32 -2 59 -5 59 -3 0 -5 -7 -5 -15z m-5 -61 c0 -10 -8 -20 -17 -22 -18 -3
-26 27 -11 42 12 11 28 0 28 -20z"/>
<path d="M156 207 c-18 -48 -21 -71 -5 -44 14 23 46 22 54 -4 4 -11 9 -18 12
-16 6 7 -30 107 -38 107 -3 0 -14 -19 -23 -43z m34 -8 c0 -5 -4 -9 -10 -9 -5
0 -10 7 -10 16 0 8 5 12 10 9 6 -3 10 -10 10 -16z"/>
<path d="M241 168 c1 -35 3 -56 6 -47 2 10 13 19 23 22 11 3 23 13 26 22 10
25 -12 65 -36 65 -18 0 -20 -6 -19 -62z m39 16 c0 -15 -6 -24 -15 -24 -15 0
-21 40 -9 53 12 11 24 -3 24 -29z"/>
<path d="M317 216 c-3 -8 -4 -34 -1 -58 5 -43 14 -65 14 -36 0 9 9 18 21 21
17 5 20 12 17 44 -2 30 -8 39 -24 41 -12 2 -24 -4 -27 -12z m41 -29 c2 -19 -1
-27 -12 -27 -11 0 -16 10 -16 31 0 38 24 35 28 -4z"/>
<path d="M391 182 c2 -33 3 -38 6 -17 2 17 11 35 19 41 12 10 11 12 -6 17 -18
5 -20 1 -19 -41z"/>
<path d="M457 212 c-10 -10 -17 -26 -17 -34 0 -23 27 -41 47 -33 17 7 16 8 -2
13 -36 8 -41 22 -7 22 33 0 42 16 20 38 -16 16 -22 15 -41 -6z m33 -12 c0 -5
-4 -10 -9 -10 -6 0 -13 5 -16 10 -3 6 1 10 9 10 9 0 16 -4 16 -10z"/>
<path d="M520 188 c0 -21 5 -38 11 -38 5 0 7 4 4 10 -8 14 13 50 30 50 9 0 15
-14 18 -37 l4 -38 1 43 c1 23 -1 43 -5 43 -5 1 -20 2 -35 3 -26 2 -28 -1 -28
-36z"/>
<path d="M628 219 c-23 -13 -24 -65 -2 -73 9 -3 23 -2 32 4 14 8 12 9 -10 10
-16 0 -28 5 -28 10 0 6 11 10 24 10 30 0 42 16 26 35 -14 17 -19 18 -42 4z
m32 -19 c0 -5 -7 -10 -15 -10 -8 0 -15 5 -15 10 0 6 7 10 15 10 8 0 15 -4 15
-10z"/>
<path d="M711 221 c-11 -7 -11 -10 4 -12 15 -4 15 -6 -4 -31 -12 -14 -21 -29
-21 -32 0 -10 58 -7 65 4 3 6 -3 10 -14 10 -26 0 -27 12 -1 35 11 10 20 22 20
27 0 11 -31 10 -49 -1z"/>
<path d="M823 223 c-22 -8 -14 -21 9 -15 14 3 19 2 14 -6 -4 -7 -14 -12 -22
-12 -17 0 -19 -37 -1 -43 6 -2 20 -2 30 1 20 5 24 51 5 70 -13 13 -16 13 -35
5z m37 -53 c0 -5 -9 -10 -20 -10 -11 0 -20 5 -20 10 0 6 9 10 20 10 11 0 20
-4 20 -10z"/>
<path d="M1002 218 c-7 -7 -12 -24 -12 -39 0 -32 32 -48 55 -29 27 23 12 80
-20 80 -6 0 -16 -5 -23 -12z m43 -33 c0 -13 -8 -21 -22 -23 -17 -3 -23 2 -23
16 0 10 3 22 7 26 13 13 38 1 38 -19z"/>
<path d="M1107 222 c-2 -4 0 -25 4 -47 l6 -40 2 37 c1 26 6 38 19 40 14 3 13
5 -5 10 -13 3 -24 3 -26 0z"/>
<path d="M1201 168 c1 -35 3 -56 5 -48 3 9 15 20 27 25 41 18 30 85 -14 85
-17 0 -19 -8 -18 -62z m39 16 c0 -15 -6 -24 -15 -24 -15 0 -21 40 -9 53 12 11
24 -3 24 -29z"/>
<path d="M1402 217 c-13 -15 -4 -31 21 -40 10 -4 15 -11 12 -17 -4 -7 -14 -6
-28 1 -21 11 -21 10 -5 -6 18 -20 48 -14 48 9 0 9 -9 20 -20 26 -24 13 -17 32
7 23 11 -4 14 -3 9 5 -9 16 -31 15 -44 -1z"/>
<path d="M1510 216 c-17 -22 -8 -59 17 -72 25 -12 21 -26 -5 -17 -10 4 -13 2
-8 -5 11 -18 34 -14 45 6 15 29 2 102 -19 102 -10 0 -23 -7 -30 -14z m40 -32
c0 -15 -6 -24 -15 -24 -21 0 -30 27 -15 45 16 19 30 10 30 -21z"/>
<path d="M1580 191 c0 -23 5 -41 11 -41 7 0 9 10 5 25 -5 20 -2 27 16 35 13 5
18 9 11 9 -6 1 -18 4 -27 7 -13 5 -16 -2 -16 -35z"/>
<path d="M1653 223 c-22 -8 -14 -21 9 -15 14 3 19 2 14 -6 -4 -7 -14 -12 -22
-12 -8 0 -14 -9 -14 -21 0 -16 5 -20 28 -17 30 3 42 38 22 64 -13 15 -17 16
-37 7z m32 -53 c-3 -5 -13 -10 -21 -10 -8 0 -14 5 -14 10 0 6 9 10 21 10 11 0
17 -4 14 -10z"/>
<path d="M1711 180 c1 -28 4 -35 6 -18 5 31 30 56 43 42 4 -5 10 -22 13 -39 4
-27 4 -27 6 7 1 39 -10 53 -46 53 -21 1 -23 -3 -22 -45z"/>
<path d="M921 194 c15 -35 27 -50 34 -42 12 11 23 68 14 68 -5 0 -9 -9 -9 -19
0 -11 -4 -23 -10 -26 -5 -3 -10 0 -10 8 0 8 -7 20 -16 27 -13 12 -14 10 -3
-16z"/>
<path d="M1083 180 c0 -25 2 -35 4 -22 2 12 2 32 0 45 -2 12 -4 2 -4 -23z"/>
<path d="M1316 193 c10 -48 12 -52 32 -46 23 6 35 40 22 62 -7 12 -9 8 -10
-16 0 -23 -5 -33 -15 -33 -10 0 -15 10 -15 30 0 17 -5 30 -10 30 -6 0 -8 -12
-4 -27z"/>
</g>
</svg>
